<?xml version="1.0" encoding="utf-8"?>
<!DOCTYPE svg PUBLIC "-//W3C//DTD SVG 1.1//EN" "http://www.w3.org/Graphics/SVG/1.1/DTD/svg11.dtd">
<svg version="1.1" id="Layer_1" xmlns="http://www.w3.org/2000/svg" xmlns:xlink="http://www.w3.org/1999/xlink" x="0px" y="0px"
	 width="256px" height="256px" viewBox="0 0 256 256" enable-background="new 0 0 256 256" xml:space="preserve">
<symbol  id="New_Symbol_5_1_" viewBox="-175.216 -202.205 350.18 404.297">
	<defs>
		<filter id="Adobe_OpacityMaskFilter" filterUnits="userSpaceOnUse" x="-164.803" y="-61.71" width="329.607" height="251.983">
			<feColorMatrix  type="matrix" values="1 0 0 0 0  0 1 0 0 0  0 0 1 0 0  0 0 0 1 0"/>
		</filter>
	</defs>
	<mask maskUnits="userSpaceOnUse" x="-164.803" y="-61.71" width="329.607" height="251.983" id="SVGID_1_">
		<g filter="url(#Adobe_OpacityMaskFilter)">
			<g>
				<path fill="#FFFFFF" d="M-154.517-89.198L0-178.396l154.518,89.198V89.198L0,178.396l-154.517-89.197V-89.198z"/>
			</g>
		</g>
	</mask>
	<g mask="url(#SVGID_1_)">
		<path fill="#36A2EB" d="M164.804-1.462c-56.521-1.105-44.751-36.887-84.581-45.937C39.757-56.593,33.365,51.425-7.089,51.425
			c-40.46,0-49.417-104.924-100.082-176.959l-1.44-2.044L0-190.273l164.804,95.137V-1.462z"/>
		<path fill="#FFCE56" d="M164.804,1.8c-18.925,24.284-31.759,52.195-59.368,52.195c-48.86,0-36.002-79.708-90.006-79.708
			s-59.68,85.74-120.865,5.143c-19.493-25.683-35.185-54.315-47.511-81.411L0-190.273l164.804,95.137V1.8z"/>
		<path fill="#FE6184" fill-opacity="0.8" d="M-164.803-31.222c18.541,51.347,26.546,92.932,61.939,92.932
			c54.003,0,66.862-151.704,113.15-136.275c46.289,15.427,41.146,97.707,113.15,97.707c13.707,0,27.7-8.393,41.367-21.974v-96.305
			L0-190.273l-164.803,95.137V-31.222z"/>
	</g>
	<g>
		<path fill="#E7E9ED" d="M-0.126-202.205l-175.09,101.073v202.148l175.09,101.075l175.09-101.075v-202.148L-0.126-202.205z
			 M-154.644-89.254l154.517-89.198l154.518,89.198V89.142L-0.126,178.339l-154.517-89.197V-89.254z"/>
	</g>
</symbol>
<g id="New_Symbol_5">
	<path fill="#36A2EB" d="M222.138,129.628c-32.211,0.63-25.503,21.022-48.203,26.179c-23.062,5.24-26.704-56.319-49.759-56.319
		c-23.058,0-28.163,59.796-57.037,100.849l-0.821,1.165l61.897,35.73l93.921-54.219V129.628z"/>
	<path fill="#FFCE56" d="M222.138,127.77c-10.785-13.839-18.099-29.746-33.833-29.746c-27.846,0-20.518,45.426-51.294,45.426
		s-34.012-48.863-68.881-2.931c-11.109,14.636-20.051,30.954-27.076,46.396l87.164,50.318l93.921-54.219V127.77z"/>
	<path fill="#FE6184" fill-opacity="0.8" d="M34.295,146.589c10.566-29.263,15.128-52.962,35.299-52.962
		c30.776,0,38.104,86.456,64.484,77.663c26.38-8.792,23.449-55.683,64.485-55.683c7.812,0,15.786,4.783,23.575,12.523v54.884
		l-93.921,54.219l-93.921-54.219V146.589z"/>
	<path fill="#E7E9ED" d="M128.144,244.032L28.36,186.43V71.226l99.784-57.603l99.784,57.603V186.43L128.144,244.032z
		 M40.085,179.662l88.059,50.834l88.06-50.834V77.993l-88.06-50.833L40.085,77.993V179.662z"/>
</g>
<g>
	<g>
		<rect x="111" y="67" fill="#36A2EB" width="26" height="26"/>
	</g>
	<g>
		<path fill="#FFFFFF" d="M124.139,75.789c0.42,0,0.804,0.062,1.153,0.186c0.349,0.124,0.647,0.299,0.895,0.526
			c0.248,0.227,0.441,0.5,0.58,0.819c0.138,0.319,0.208,0.674,0.208,1.064c0,0.336-0.049,0.647-0.148,0.933
			s-0.231,0.559-0.397,0.819c-0.166,0.261-0.36,0.513-0.583,0.756s-0.456,0.491-0.699,0.743l-2.054,2.098
			c0.202-0.059,0.399-0.104,0.592-0.136c0.193-0.031,0.378-0.047,0.555-0.047h2.337c0.168,0,0.302,0.047,0.4,0.142
			c0.099,0.094,0.148,0.219,0.148,0.375V85h-6.25v-0.517c0-0.105,0.022-0.214,0.066-0.328c0.044-0.113,0.115-0.218,0.211-0.315
			l2.766-2.772c0.231-0.235,0.438-0.46,0.621-0.674c0.183-0.214,0.336-0.426,0.459-0.636c0.124-0.21,0.219-0.423,0.284-0.639
			s0.098-0.444,0.098-0.684c0-0.218-0.031-0.411-0.095-0.577c-0.063-0.166-0.153-0.306-0.271-0.419
			c-0.118-0.113-0.257-0.198-0.419-0.255c-0.162-0.057-0.344-0.085-0.545-0.085c-0.374,0-0.682,0.095-0.923,0.284
			c-0.241,0.189-0.41,0.443-0.507,0.762c-0.046,0.16-0.116,0.274-0.208,0.343s-0.21,0.104-0.353,0.104
			c-0.063,0-0.132-0.006-0.208-0.019l-0.819-0.145c0.063-0.437,0.185-0.82,0.366-1.15c0.18-0.33,0.406-0.605,0.677-0.825
			c0.271-0.221,0.582-0.386,0.932-0.498S123.736,75.789,124.139,75.789z"/>
	</g>
	<circle fill="#36A2EB" stroke="#FFFFFF" stroke-miterlimit="10" cx="123.696" cy="99.3" r="2.7"/>
</g>
<g>
	<g>
		<g>
			<path fill="#FFFFFF" d="M139,181c3.86,0,7,3.14,7,7v8c0,3.86-3.14,7-7,7h-16c-3.86,0-7-3.14-7-7v-8c0-3.86,3.14-7,7-7H139
				 M139,180h-16c-4.4,0-8,3.6-8,8v8c0,4.4,3.6,8,8,8h16c4.4,0,8-3.6,8-8v-8C147,183.6,143.4,180,139,180L139,180z"/>
		</g>
	</g>
	<g>
		<path fill="#FFFFFF" d="M125.715,192.546h3.264v1.298h-3.264V192.546z"/>
		<path fill="#FFFFFF" d="M135.543,193.566h1.146v0.901c0,0.084-0.027,0.157-0.082,0.217c-0.055,0.061-0.135,0.091-0.24,0.091
			h-0.825V197h-1.361v-2.224h-3.843c-0.105,0-0.198-0.032-0.277-0.098c-0.08-0.065-0.13-0.146-0.151-0.242l-0.157-0.788l4.315-5.765
			h1.474V193.566z M134.182,190.586c0-0.134,0.004-0.279,0.013-0.435s0.023-0.317,0.044-0.485l-2.829,3.899h2.772V190.586z"/>
	</g>
	<circle fill="#FF6384" stroke="#FFFFFF" stroke-miterlimit="10" cx="130.695" cy="172.3" r="2.7"/>
</g>
<g>
	<g>
		<g>
			<path fill="#7A62AB" d="M204,69v24h-34V69H204 M205,68h-36v26h36V68L205,68z"/>
		</g>
	</g>
	<g>
		<path fill="#7A62AB" d="M178.905,78.494v2.624h2.451v1.171h-2.451v2.636h-1.26v-2.636h-2.438v-1.171h2.438v-2.624H178.905z"/>
		<path fill="#7A62AB" d="M185.734,76.645c0.42,0,0.804,0.063,1.153,0.189c0.349,0.125,0.647,0.304,0.895,0.534
			c0.248,0.23,0.441,0.507,0.58,0.832c0.138,0.324,0.208,0.685,0.208,1.082c0,0.341-0.049,0.657-0.148,0.947
			s-0.231,0.567-0.397,0.832s-0.36,0.521-0.583,0.768c-0.223,0.248-0.456,0.499-0.699,0.755l-2.054,2.131
			c0.202-0.06,0.399-0.105,0.592-0.138c0.193-0.032,0.378-0.048,0.555-0.048h2.337c0.168,0,0.302,0.048,0.4,0.144
			c0.099,0.096,0.148,0.223,0.148,0.381V86h-6.25v-0.525c0-0.106,0.022-0.217,0.066-0.333c0.044-0.115,0.115-0.222,0.211-0.32
			l2.766-2.815c0.231-0.239,0.438-0.467,0.621-0.685c0.183-0.218,0.336-0.433,0.459-0.646c0.124-0.213,0.219-0.43,0.284-0.65
			c0.065-0.219,0.098-0.451,0.098-0.694c0-0.222-0.031-0.417-0.095-0.585c-0.063-0.168-0.153-0.311-0.271-0.426
			c-0.118-0.115-0.257-0.202-0.419-0.259c-0.162-0.058-0.344-0.086-0.545-0.086c-0.374,0-0.682,0.096-0.923,0.288
			c-0.241,0.192-0.41,0.45-0.507,0.774c-0.046,0.162-0.116,0.278-0.208,0.349s-0.21,0.105-0.353,0.105
			c-0.063,0-0.132-0.006-0.208-0.019l-0.819-0.147c0.063-0.444,0.185-0.833,0.366-1.168c0.18-0.335,0.406-0.614,0.677-0.838
			c0.271-0.224,0.582-0.392,0.932-0.505C184.954,76.702,185.331,76.645,185.734,76.645z"/>
		<path fill="#7A62AB" d="M193.842,78.987c0,0.35-0.058,0.666-0.173,0.947c-0.116,0.282-0.27,0.521-0.463,0.72
			c-0.193,0.198-0.418,0.351-0.674,0.458c-0.256,0.106-0.523,0.16-0.8,0.16c-0.303,0-0.582-0.053-0.838-0.16
			c-0.256-0.107-0.478-0.259-0.665-0.458c-0.187-0.199-0.333-0.438-0.438-0.72c-0.105-0.281-0.158-0.597-0.158-0.947
			c0-0.358,0.053-0.683,0.158-0.973s0.25-0.535,0.438-0.736c0.187-0.2,0.409-0.355,0.665-0.464c0.256-0.108,0.535-0.163,0.838-0.163
			c0.302,0,0.583,0.055,0.841,0.163c0.258,0.109,0.482,0.264,0.671,0.464c0.189,0.201,0.336,0.446,0.441,0.736
			S193.842,78.628,193.842,78.987z M196.873,76.997c0.05-0.064,0.113-0.122,0.189-0.173s0.181-0.077,0.315-0.077h1.128l-6.767,9.015
			c-0.05,0.068-0.114,0.125-0.192,0.169c-0.078,0.045-0.171,0.067-0.28,0.067h-1.159L196.873,76.997z M192.639,78.987
			c0-0.247-0.023-0.454-0.069-0.621c-0.046-0.167-0.11-0.301-0.192-0.403c-0.082-0.102-0.179-0.176-0.29-0.221
			c-0.111-0.044-0.23-0.067-0.356-0.067s-0.244,0.022-0.353,0.067c-0.109,0.045-0.204,0.119-0.284,0.221
			c-0.08,0.103-0.142,0.237-0.186,0.403c-0.044,0.167-0.066,0.374-0.066,0.621c0,0.239,0.022,0.438,0.066,0.598
			c0.044,0.16,0.106,0.289,0.186,0.387c0.08,0.098,0.174,0.168,0.284,0.211c0.109,0.042,0.227,0.064,0.353,0.064
			s0.245-0.021,0.356-0.064c0.111-0.043,0.208-0.113,0.29-0.211s0.146-0.227,0.192-0.387
			C192.616,79.425,192.639,79.226,192.639,78.987z M198.983,83.824c0,0.35-0.058,0.665-0.173,0.947
			c-0.115,0.282-0.27,0.521-0.463,0.72s-0.418,0.352-0.674,0.461c-0.256,0.108-0.523,0.163-0.8,0.163
			c-0.302,0-0.582-0.055-0.838-0.163c-0.256-0.109-0.478-0.263-0.665-0.461c-0.187-0.198-0.333-0.438-0.438-0.72
			s-0.158-0.597-0.158-0.947c0-0.358,0.053-0.683,0.158-0.973s0.251-0.535,0.438-0.736c0.187-0.201,0.408-0.355,0.665-0.464
			c0.256-0.109,0.536-0.163,0.838-0.163s0.583,0.054,0.841,0.163s0.482,0.263,0.671,0.464c0.189,0.201,0.336,0.446,0.441,0.736
			S198.983,83.466,198.983,83.824z M197.786,83.824c0-0.248-0.024-0.455-0.073-0.621c-0.048-0.167-0.113-0.301-0.195-0.403
			c-0.082-0.103-0.178-0.176-0.29-0.221s-0.23-0.067-0.356-0.067s-0.244,0.022-0.353,0.067c-0.109,0.045-0.203,0.118-0.28,0.221
			s-0.14,0.237-0.186,0.403c-0.046,0.166-0.069,0.373-0.069,0.621c0,0.239,0.023,0.439,0.069,0.601
			c0.046,0.163,0.108,0.292,0.186,0.391s0.171,0.168,0.28,0.211c0.109,0.043,0.227,0.064,0.353,0.064s0.245-0.021,0.356-0.064
			c0.111-0.042,0.208-0.113,0.29-0.211c0.082-0.098,0.147-0.228,0.195-0.391C197.762,84.264,197.786,84.063,197.786,83.824z"/>
	</g>
	<circle fill="#FFCE56" stroke="#FFFFFF" stroke-miterlimit="10" cx="187.185" cy="98.701" r="2.7"/>
</g>
<g>
	<circle fill="#FF6384" stroke="#FFFFFF" stroke-miterlimit="10" cx="67.221" cy="95.037" r="2.7"/>
	<g>
		<path fill="#FF6384" d="M62.175,75.789c0.42,0,0.804,0.062,1.153,0.186c0.349,0.124,0.647,0.299,0.895,0.526
			c0.248,0.227,0.441,0.5,0.58,0.819c0.138,0.319,0.208,0.674,0.208,1.064c0,0.336-0.049,0.647-0.148,0.933
			s-0.231,0.559-0.397,0.819c-0.166,0.261-0.36,0.513-0.583,0.756s-0.456,0.491-0.699,0.743l-2.054,2.098
			c0.202-0.059,0.399-0.104,0.592-0.136c0.193-0.031,0.378-0.047,0.555-0.047h2.337c0.168,0,0.302,0.047,0.4,0.142
			c0.099,0.094,0.148,0.219,0.148,0.375V85h-6.25v-0.517c0-0.105,0.022-0.214,0.066-0.328c0.044-0.113,0.115-0.218,0.211-0.315
			l2.766-2.772c0.231-0.235,0.438-0.46,0.621-0.674c0.183-0.214,0.336-0.426,0.459-0.636c0.124-0.21,0.219-0.423,0.284-0.639
			s0.098-0.444,0.098-0.684c0-0.218-0.031-0.411-0.095-0.577c-0.063-0.166-0.153-0.306-0.271-0.419
			c-0.118-0.113-0.257-0.198-0.419-0.255c-0.162-0.057-0.344-0.085-0.545-0.085c-0.374,0-0.682,0.095-0.923,0.284
			c-0.241,0.189-0.41,0.443-0.507,0.762c-0.046,0.16-0.116,0.274-0.208,0.343s-0.21,0.104-0.353,0.104
			c-0.063,0-0.132-0.006-0.208-0.019l-0.819-0.145c0.063-0.437,0.185-0.82,0.366-1.15c0.18-0.33,0.406-0.605,0.677-0.825
			c0.271-0.221,0.582-0.386,0.932-0.498S61.772,75.789,62.175,75.789z"/>
		<path fill="#FF6384" d="M66.15,84.143c0-0.13,0.024-0.254,0.072-0.372s0.116-0.218,0.202-0.302s0.188-0.151,0.306-0.202
			s0.244-0.076,0.378-0.076c0.13,0,0.254,0.025,0.372,0.076s0.218,0.118,0.303,0.202c0.084,0.084,0.151,0.185,0.201,0.302
			c0.051,0.118,0.076,0.242,0.076,0.372c0,0.135-0.025,0.259-0.076,0.375c-0.05,0.116-0.117,0.215-0.201,0.299
			c-0.084,0.084-0.185,0.15-0.303,0.198s-0.241,0.073-0.372,0.073c-0.134,0-0.26-0.024-0.378-0.073s-0.22-0.114-0.306-0.198
			s-0.153-0.184-0.202-0.299S66.15,84.277,66.15,84.143z"/>
		<path fill="#FF6384" d="M70.22,83.834h1.846v-5.311c0-0.206,0.006-0.422,0.019-0.649l-1.311,1.096
			c-0.055,0.046-0.11,0.078-0.167,0.095s-0.112,0.025-0.167,0.025c-0.084,0-0.161-0.018-0.23-0.054s-0.121-0.077-0.154-0.123
			l-0.491-0.674l2.778-2.363h1.279v7.957h1.638V85h-5.04V83.834z"/>
	</g>
</g>
</svg>
