<?xml version="1.0" encoding="utf-8"?>
<!DOCTYPE svg PUBLIC "-//W3C//DTD SVG 1.1//EN" "http://www.w3.org/Graphics/SVG/1.1/DTD/svg11.dtd">
<svg version="1.1" id="Layer_1" xmlns="http://www.w3.org/2000/svg" xmlns:xlink="http://www.w3.org/1999/xlink" x="0px" y="0px"
	 width="320px" height="320px" viewBox="0 0 320 320" enable-background="new 0 0 320 320" xml:space="preserve">
<symbol  id="New_Symbol_5_1_" viewBox="-175.216 -202.205 350.18 404.297">
	<defs>
		<filter id="Adobe_OpacityMaskFilter" filterUnits="userSpaceOnUse" x="-164.803" y="-61.71" width="329.607" height="251.983">
			<feColorMatrix  type="matrix" values="1 0 0 0 0  0 1 0 0 0  0 0 1 0 0  0 0 0 1 0"/>
		</filter>
	</defs>
	<mask maskUnits="userSpaceOnUse" x="-164.803" y="-61.71" width="329.607" height="251.983" id="SVGID_1_">
		<g filter="url(#Adobe_OpacityMaskFilter)">
			<g>
				<path fill="#FFFFFF" d="M-154.517-89.198L0-178.396l154.518,89.198V89.198L0,178.396l-154.517-89.197V-89.198z"/>
			</g>
		</g>
	</mask>
	<g mask="url(#SVGID_1_)">
		<path fill="#36A2EB" d="M164.804-1.462c-56.521-1.105-44.751-36.887-84.581-45.937C39.757-56.593,33.365,51.425-7.089,51.425
			c-40.46,0-49.417-104.924-100.082-176.959l-1.44-2.044L0-190.273l164.804,95.137V-1.462z"/>
		<path fill="#FFCE56" d="M164.804,1.8c-18.925,24.284-31.759,52.195-59.368,52.195c-48.86,0-36.002-79.708-90.006-79.708
			s-59.68,85.74-120.865,5.143c-19.493-25.683-35.185-54.315-47.511-81.411L0-190.273l164.804,95.137V1.8z"/>
		<path fill="#FE6184" fill-opacity="0.8" d="M-164.803-31.222c18.541,51.347,26.546,92.932,61.939,92.932
			c54.003,0,66.862-151.704,113.15-136.275c46.289,15.427,41.146,97.707,113.15,97.707c13.707,0,27.7-8.393,41.367-21.974v-96.305
			L0-190.273l-164.803,95.137V-31.222z"/>
	</g>
	<g>
		<path fill="#E7E9ED" d="M-0.126-202.205l-175.09,101.073v202.148l175.09,101.075l175.09-101.075v-202.148L-0.126-202.205z
			 M-154.644-89.254l154.517-89.198l154.518,89.198V89.142L-0.126,178.339l-154.517-89.197V-89.254z"/>
	</g>
</symbol>
<g>
	<g>
		<path fill="#FF6384" d="M42.519,282.656c-0.041,0.041-0.078,0.074-0.114,0.102c-0.036,0.028-0.086,0.042-0.15,0.042
			c-0.08,0-0.19-0.054-0.33-0.162c-0.14-0.108-0.326-0.226-0.558-0.354s-0.522-0.246-0.87-0.354
			c-0.348-0.108-0.771-0.162-1.266-0.162c-0.688,0-1.298,0.122-1.83,0.366c-0.532,0.244-0.98,0.594-1.344,1.05
			c-0.364,0.456-0.642,1.008-0.834,1.656c-0.192,0.648-0.288,1.376-0.288,2.184c0,0.84,0.098,1.584,0.294,2.232
			c0.196,0.648,0.474,1.194,0.834,1.638c0.36,0.444,0.796,0.782,1.308,1.014c0.512,0.232,1.08,0.348,1.704,0.348
			c0.576,0,1.058-0.068,1.446-0.204c0.388-0.136,0.708-0.284,0.96-0.444c0.252-0.16,0.452-0.308,0.6-0.444
			c0.148-0.136,0.266-0.204,0.354-0.204c0.104,0,0.184,0.04,0.24,0.12l0.312,0.384c-0.184,0.24-0.416,0.464-0.696,0.672
			c-0.28,0.208-0.596,0.388-0.948,0.54c-0.352,0.152-0.734,0.27-1.146,0.354s-0.842,0.126-1.29,0.126
			c-0.76,0-1.454-0.138-2.082-0.414c-0.628-0.276-1.168-0.676-1.62-1.2c-0.452-0.524-0.804-1.166-1.056-1.926
			c-0.252-0.76-0.378-1.624-0.378-2.592c0-0.912,0.12-1.744,0.36-2.496c0.24-0.751,0.59-1.4,1.05-1.944s1.024-0.966,1.692-1.266
			c0.667-0.3,1.434-0.45,2.298-0.45c0.776,0,1.466,0.124,2.07,0.372s1.13,0.584,1.578,1.008L42.519,282.656z"/>
		<path fill="#FF6384" d="M45.579,293v-17.46h1.14v7.56c0.552-0.68,1.182-1.222,1.89-1.626s1.502-0.606,2.382-0.606
			c0.656,0,1.234,0.104,1.734,0.312s0.914,0.508,1.242,0.9s0.576,0.864,0.744,1.416c0.168,0.552,0.252,1.176,0.252,1.872V293h-1.14
			v-7.632c0-1.12-0.256-1.998-0.768-2.634c-0.512-0.636-1.296-0.954-2.352-0.954c-0.784,0-1.512,0.202-2.184,0.606
			c-0.672,0.404-1.272,0.958-1.8,1.662V293H45.579z"/>
		<path fill="#FF6384" d="M66.182,293c-0.24,0-0.388-0.112-0.444-0.336l-0.168-1.524c-0.328,0.32-0.654,0.608-0.978,0.864
			c-0.324,0.256-0.662,0.472-1.014,0.648c-0.352,0.176-0.732,0.31-1.14,0.402c-0.408,0.092-0.856,0.138-1.344,0.138
			c-0.408,0-0.804-0.06-1.188-0.18c-0.384-0.12-0.724-0.304-1.02-0.552s-0.534-0.566-0.714-0.954c-0.18-0.388-0.27-0.854-0.27-1.398
			c0-0.504,0.144-0.972,0.432-1.404c0.288-0.432,0.738-0.808,1.35-1.128c0.612-0.32,1.4-0.576,2.364-0.768
			c0.964-0.192,2.122-0.304,3.474-0.336v-1.248c0-1.104-0.238-1.954-0.714-2.55c-0.476-0.596-1.182-0.894-2.118-0.894
			c-0.576,0-1.066,0.08-1.47,0.24c-0.404,0.16-0.746,0.336-1.026,0.528c-0.28,0.192-0.508,0.368-0.684,0.528
			c-0.176,0.16-0.324,0.24-0.444,0.24c-0.16,0-0.28-0.072-0.36-0.216l-0.204-0.348c0.624-0.624,1.28-1.096,1.968-1.416
			c0.688-0.32,1.468-0.48,2.34-0.48c0.64,0,1.2,0.102,1.68,0.306s0.878,0.496,1.194,0.876s0.554,0.84,0.714,1.38
			c0.16,0.54,0.24,1.142,0.24,1.806V293H66.182z M61.382,292.364c0.464,0,0.89-0.05,1.278-0.15c0.388-0.1,0.748-0.24,1.08-0.42
			s0.642-0.394,0.93-0.642c0.288-0.248,0.572-0.516,0.852-0.804v-3.108c-1.136,0.032-2.114,0.118-2.934,0.258
			c-0.82,0.14-1.496,0.33-2.028,0.57c-0.532,0.24-0.924,0.526-1.176,0.858c-0.252,0.333-0.378,0.71-0.378,1.134
			c0,0.4,0.066,0.746,0.198,1.038s0.306,0.532,0.522,0.72c0.216,0.188,0.468,0.326,0.756,0.414
			C60.77,292.32,61.07,292.364,61.382,292.364z"/>
		<path fill="#FF6384" d="M70.238,293v-11.94h0.6c0.136,0,0.234,0.028,0.294,0.084s0.094,0.152,0.102,0.288l0.096,2.52
			c0.384-0.968,0.896-1.726,1.536-2.274c0.64-0.548,1.428-0.822,2.364-0.822c0.36,0,0.692,0.038,0.996,0.114
			c0.304,0.076,0.592,0.186,0.864,0.33l-0.156,0.792c-0.024,0.128-0.104,0.192-0.24,0.192c-0.048,0-0.116-0.016-0.204-0.048
			c-0.088-0.032-0.198-0.068-0.33-0.108c-0.132-0.04-0.294-0.076-0.486-0.108c-0.192-0.032-0.412-0.048-0.66-0.048
			c-0.904,0-1.646,0.28-2.226,0.84c-0.58,0.56-1.05,1.368-1.41,2.424V293H70.238z"/>
		<path fill="#FF6384" d="M83.018,293.192c-0.808,0-1.436-0.224-1.884-0.672c-0.448-0.448-0.672-1.14-0.672-2.076v-8.16h-1.716
			c-0.088,0-0.16-0.024-0.216-0.072c-0.056-0.048-0.084-0.116-0.084-0.204v-0.444l2.04-0.144l0.285-4.272
			c0.008-0.072,0.037-0.136,0.089-0.192c0.051-0.056,0.121-0.084,0.208-0.084h0.534v4.56h3.756v0.852h-3.756v8.1
			c0,0.328,0.042,0.61,0.126,0.846c0.084,0.236,0.2,0.43,0.348,0.582s0.322,0.264,0.522,0.336c0.2,0.072,0.416,0.108,0.648,0.108
			c0.288,0,0.536-0.042,0.744-0.126s0.388-0.176,0.54-0.276s0.276-0.192,0.372-0.276c0.096-0.084,0.172-0.126,0.228-0.126
			c0.064,0,0.128,0.04,0.192,0.12l0.312,0.504c-0.304,0.336-0.69,0.606-1.158,0.81C84.008,293.09,83.522,293.192,83.018,293.192z"/>
		<path fill="#FF6384" d="M89.797,281.06v13.464c0,0.416-0.06,0.8-0.18,1.152c-0.12,0.352-0.298,0.658-0.534,0.918
			c-0.236,0.26-0.532,0.464-0.888,0.612s-0.774,0.222-1.254,0.222c-0.232,0-0.44-0.021-0.624-0.06
			c-0.184-0.041-0.364-0.104-0.54-0.192l0.06-0.576c0.008-0.096,0.064-0.144,0.168-0.144c0.064,0,0.154,0.016,0.27,0.048
			s0.274,0.048,0.474,0.048c0.648,0,1.128-0.176,1.44-0.528s0.468-0.852,0.468-1.5V281.06H89.797z M90.301,276.944
			c0,0.144-0.03,0.278-0.09,0.402s-0.138,0.234-0.234,0.33c-0.096,0.096-0.208,0.172-0.336,0.228
			c-0.128,0.056-0.264,0.084-0.408,0.084s-0.28-0.028-0.408-0.084c-0.128-0.056-0.24-0.132-0.336-0.228
			c-0.096-0.096-0.172-0.206-0.228-0.33c-0.056-0.124-0.084-0.258-0.084-0.402s0.028-0.282,0.084-0.414
			c0.056-0.132,0.132-0.246,0.228-0.342c0.096-0.096,0.208-0.172,0.336-0.228c0.127-0.056,0.264-0.084,0.408-0.084
			s0.28,0.028,0.408,0.084c0.128,0.056,0.24,0.132,0.336,0.228c0.096,0.096,0.174,0.21,0.234,0.342
			C90.271,276.662,90.301,276.8,90.301,276.944z"/>
		<path fill="#FF6384" d="M100.549,282.548c-0.056,0.112-0.144,0.168-0.264,0.168c-0.088,0-0.202-0.05-0.342-0.15
			c-0.14-0.1-0.324-0.212-0.552-0.336s-0.508-0.236-0.84-0.336s-0.738-0.15-1.218-0.15c-0.432,0-0.826,0.062-1.182,0.186
			c-0.356,0.124-0.66,0.289-0.912,0.497s-0.448,0.449-0.588,0.724c-0.14,0.275-0.21,0.564-0.21,0.868
			c0,0.375,0.096,0.686,0.288,0.934c0.192,0.247,0.444,0.458,0.756,0.634c0.312,0.176,0.666,0.328,1.062,0.455
			c0.396,0.128,0.802,0.255,1.218,0.383c0.416,0.128,0.822,0.27,1.218,0.426c0.396,0.156,0.75,0.35,1.062,0.582
			s0.564,0.516,0.756,0.852s0.288,0.744,0.288,1.224c0,0.521-0.094,1.004-0.282,1.452c-0.188,0.448-0.46,0.836-0.816,1.164
			s-0.794,0.588-1.314,0.78c-0.52,0.192-1.112,0.288-1.776,0.288c-0.84,0-1.564-0.134-2.172-0.402
			c-0.608-0.268-1.152-0.618-1.632-1.05l0.276-0.408c0.04-0.064,0.084-0.112,0.132-0.144c0.048-0.032,0.116-0.048,0.204-0.048
			c0.104,0,0.232,0.064,0.384,0.192s0.35,0.266,0.594,0.414c0.244,0.148,0.548,0.286,0.912,0.414
			c0.364,0.128,0.814,0.192,1.35,0.192c0.504,0,0.948-0.07,1.332-0.21c0.384-0.14,0.704-0.33,0.96-0.57
			c0.256-0.24,0.45-0.522,0.582-0.846c0.132-0.324,0.198-0.666,0.198-1.026c0-0.4-0.096-0.732-0.288-0.996
			c-0.192-0.264-0.444-0.488-0.756-0.672c-0.312-0.184-0.666-0.34-1.062-0.468s-0.804-0.256-1.224-0.384s-0.828-0.268-1.224-0.42
			c-0.396-0.152-0.75-0.344-1.062-0.576s-0.564-0.514-0.756-0.846c-0.192-0.332-0.288-0.746-0.288-1.242
			c0-0.424,0.092-0.832,0.276-1.224s0.446-0.736,0.786-1.032c0.34-0.296,0.754-0.532,1.242-0.708
			c0.488-0.176,1.036-0.264,1.644-0.264c0.728,0,1.374,0.105,1.938,0.316c0.564,0.211,1.082,0.534,1.554,0.968L100.549,282.548z"/>
		<path fill="#FF6384" d="M103.549,285.392h5.58v0.972h-5.58V285.392z"/>
		<path fill="#FF6384" d="M112.273,297.224V281.06h0.624c0.104,0,0.188,0.022,0.252,0.066s0.1,0.122,0.108,0.234l0.108,1.848
			c0.528-0.72,1.146-1.292,1.854-1.716c0.708-0.424,1.502-0.636,2.382-0.636c1.472,0,2.616,0.508,3.432,1.524
			c0.816,1.016,1.224,2.54,1.224,4.572c0,0.872-0.114,1.686-0.342,2.442s-0.562,1.412-1.002,1.968
			c-0.44,0.556-0.982,0.994-1.626,1.314c-0.644,0.32-1.386,0.48-2.226,0.48c-0.816,0-1.52-0.148-2.112-0.444
			c-0.592-0.296-1.104-0.736-1.536-1.32v5.832H112.273z M117.277,281.78c-0.792,0-1.51,0.206-2.154,0.618s-1.214,0.986-1.71,1.722
			v6.264c0.456,0.688,0.962,1.172,1.518,1.452c0.556,0.28,1.19,0.42,1.902,0.42c0.704,0,1.32-0.128,1.848-0.384
			s0.97-0.618,1.326-1.086c0.355-0.468,0.624-1.028,0.804-1.68c0.18-0.652,0.27-1.37,0.27-2.154c0-1.776-0.326-3.082-0.978-3.918
			S118.509,281.78,117.277,281.78z"/>
		<path fill="#FF6384" d="M126.588,275.54V293h-1.14v-17.46H126.588z"/>
		<path fill="#FF6384" d="M131.652,281.06v7.632c0,1.12,0.257,1.998,0.771,2.634c0.514,0.636,1.296,0.954,2.348,0.954
			c0.779,0,1.505-0.198,2.18-0.594c0.674-0.396,1.28-0.946,1.818-1.65v-8.976h1.14V293h-0.628c-0.221,0-0.336-0.104-0.344-0.312
			l-0.108-1.776c-0.553,0.688-1.192,1.24-1.917,1.656c-0.725,0.416-1.532,0.624-2.421,0.624c-0.665,0-1.246-0.104-1.743-0.312
			s-0.909-0.508-1.238-0.9c-0.328-0.392-0.577-0.864-0.745-1.416c-0.168-0.552-0.252-1.176-0.252-1.872v-7.632H131.652z"/>
		<path fill="#FF6384" d="M147.732,280.856c0.52,0,1.002,0.064,1.446,0.192c0.444,0.128,0.842,0.308,1.194,0.54h3.06v0.396
			c0,0.2-0.112,0.308-0.336,0.324l-1.812,0.132c0.224,0.304,0.396,0.646,0.516,1.026c0.12,0.38,0.18,0.786,0.18,1.218
			c0,0.576-0.104,1.098-0.312,1.566s-0.498,0.868-0.87,1.2c-0.372,0.332-0.818,0.59-1.338,0.774s-1.096,0.276-1.728,0.276
			c-0.688,0-1.312-0.104-1.872-0.312c-0.336,0.192-0.6,0.42-0.792,0.684c-0.192,0.264-0.288,0.52-0.288,0.768
			c0,0.344,0.12,0.608,0.36,0.792c0.24,0.184,0.558,0.318,0.954,0.402s0.848,0.138,1.356,0.162c0.508,0.024,1.024,0.05,1.548,0.078
			c0.524,0.028,1.04,0.078,1.548,0.15c0.508,0.072,0.96,0.198,1.356,0.378s0.714,0.432,0.954,0.756c0.24,0.324,0.36,0.754,0.36,1.29
			c0,0.496-0.124,0.972-0.372,1.428c-0.248,0.456-0.606,0.86-1.074,1.212c-0.468,0.352-1.034,0.634-1.698,0.846
			c-0.665,0.212-1.408,0.318-2.232,0.318c-0.84,0-1.576-0.086-2.208-0.258c-0.632-0.172-1.162-0.404-1.59-0.696
			c-0.428-0.292-0.75-0.63-0.966-1.014c-0.216-0.384-0.324-0.792-0.324-1.224c0-0.632,0.208-1.176,0.624-1.632
			s0.988-0.808,1.716-1.056c-0.4-0.136-0.718-0.332-0.954-0.588c-0.236-0.256-0.354-0.612-0.354-1.068
			c0-0.168,0.032-0.344,0.096-0.528s0.16-0.366,0.288-0.546c0.128-0.18,0.282-0.35,0.462-0.51c0.18-0.16,0.39-0.304,0.63-0.432
			c-0.568-0.328-1.01-0.764-1.326-1.308c-0.316-0.544-0.474-1.18-0.474-1.908c0-0.576,0.102-1.098,0.306-1.566
			c0.204-0.468,0.492-0.87,0.864-1.206s0.822-0.596,1.35-0.78C146.508,280.948,147.092,280.856,147.732,280.856z M152.16,293.804
			c0-0.376-0.098-0.678-0.294-0.906c-0.196-0.228-0.458-0.406-0.786-0.534c-0.328-0.127-0.706-0.218-1.134-0.27
			c-0.428-0.052-0.876-0.09-1.344-0.114s-0.938-0.048-1.41-0.072c-0.472-0.024-0.912-0.072-1.32-0.144
			c-0.304,0.12-0.586,0.258-0.846,0.414c-0.26,0.156-0.482,0.332-0.666,0.528c-0.184,0.196-0.328,0.412-0.432,0.648
			c-0.104,0.236-0.156,0.494-0.156,0.774c0,0.352,0.09,0.678,0.27,0.978s0.444,0.56,0.792,0.78c0.348,0.22,0.774,0.394,1.278,0.522
			c0.504,0.127,1.084,0.192,1.74,0.192c0.608,0,1.174-0.068,1.698-0.204c0.523-0.136,0.979-0.328,1.368-0.576
			s0.692-0.544,0.912-0.888C152.05,294.588,152.16,294.212,152.16,293.804z M147.732,287.72c0.512,0,0.968-0.074,1.368-0.222
			c0.4-0.148,0.736-0.354,1.008-0.618c0.272-0.264,0.478-0.58,0.618-0.948c0.14-0.368,0.21-0.776,0.21-1.224
			c0-0.448-0.072-0.858-0.216-1.23s-0.354-0.69-0.63-0.954c-0.276-0.264-0.612-0.468-1.008-0.612s-0.846-0.216-1.35-0.216
			s-0.956,0.072-1.356,0.216s-0.738,0.348-1.014,0.612c-0.276,0.264-0.486,0.582-0.63,0.954s-0.216,0.782-0.216,1.23
			c0,0.448,0.072,0.856,0.216,1.224s0.354,0.684,0.63,0.948c0.276,0.264,0.614,0.47,1.014,0.618S147.228,287.72,147.732,287.72z"/>
		<path fill="#FF6384" d="M157.883,276.944c0,0.144-0.03,0.278-0.09,0.402s-0.138,0.234-0.234,0.33
			c-0.096,0.096-0.208,0.172-0.336,0.228c-0.128,0.056-0.264,0.084-0.408,0.084s-0.28-0.028-0.408-0.084
			c-0.128-0.056-0.24-0.132-0.336-0.228c-0.096-0.096-0.172-0.206-0.228-0.33c-0.056-0.124-0.084-0.258-0.084-0.402
			s0.028-0.282,0.084-0.414c0.056-0.132,0.132-0.246,0.228-0.342c0.096-0.096,0.208-0.172,0.336-0.228
			c0.127-0.056,0.264-0.084,0.408-0.084s0.28,0.028,0.408,0.084c0.128,0.056,0.24,0.132,0.336,0.228
			c0.096,0.096,0.174,0.21,0.234,0.342C157.854,276.662,157.883,276.8,157.883,276.944z M157.379,281.06V293h-1.14v-11.94H157.379z"
			/>
		<path fill="#FF6384" d="M161.603,293v-11.94h0.624c0.208,0,0.328,0.1,0.36,0.3l0.108,1.8c0.544-0.688,1.178-1.242,1.902-1.662
			s1.53-0.63,2.418-0.63c0.656,0,1.234,0.104,1.734,0.312s0.914,0.508,1.242,0.9s0.576,0.864,0.744,1.416
			c0.168,0.552,0.252,1.176,0.252,1.872V293h-1.14v-7.632c0-1.12-0.256-1.998-0.768-2.634c-0.512-0.636-1.296-0.954-2.352-0.954
			c-0.784,0-1.512,0.202-2.184,0.606c-0.672,0.404-1.272,0.958-1.8,1.662V293H161.603z"/>
		<path fill="#FF6384" d="M173.843,285.392h5.58v0.972h-5.58V285.392z"/>
		<path fill="#FF6384" d="M190.871,293c-0.384,0-0.636-0.18-0.756-0.54l-0.24-1.188c-0.256,0.288-0.524,0.548-0.804,0.78
			c-0.28,0.232-0.582,0.432-0.906,0.6s-0.672,0.298-1.044,0.39s-0.774,0.138-1.206,0.138c-0.672,0-1.288-0.14-1.848-0.42
			c-0.56-0.28-1.042-0.686-1.446-1.218c-0.404-0.532-0.716-1.19-0.936-1.974c-0.22-0.784-0.33-1.68-0.33-2.688
			c0-0.912,0.124-1.76,0.372-2.544c0.248-0.784,0.604-1.464,1.068-2.04c0.464-0.576,1.02-1.026,1.668-1.35
			c0.648-0.324,1.376-0.486,2.184-0.486c0.688,0,1.276,0.11,1.764,0.33c0.488,0.22,0.924,0.514,1.308,0.882v-6.504h2.964V293
			H190.871z M186.922,290.828c0.616,0,1.14-0.128,1.572-0.384c0.432-0.256,0.84-0.62,1.224-1.092v-5.52
			c-0.336-0.408-0.702-0.696-1.098-0.864c-0.396-0.168-0.822-0.252-1.278-0.252c-0.448,0-0.854,0.084-1.218,0.252
			c-0.364,0.168-0.672,0.422-0.924,0.762c-0.252,0.34-0.446,0.772-0.582,1.296c-0.136,0.524-0.204,1.142-0.204,1.854
			c0,0.72,0.058,1.33,0.174,1.83c0.116,0.5,0.282,0.908,0.498,1.224c0.216,0.316,0.48,0.544,0.792,0.684
			S186.539,290.828,186.922,290.828z"/>
		<path fill="#FF6384" d="M205.535,293h-1.332c-0.28,0-0.5-0.042-0.66-0.126c-0.16-0.084-0.28-0.254-0.36-0.51l-0.264-0.876
			c-0.312,0.28-0.618,0.526-0.918,0.738c-0.3,0.212-0.61,0.39-0.93,0.534c-0.32,0.144-0.66,0.252-1.02,0.324s-0.76,0.108-1.2,0.108
			c-0.52,0-1-0.07-1.44-0.21c-0.44-0.141-0.818-0.351-1.134-0.632c-0.316-0.281-0.562-0.63-0.738-1.048
			c-0.176-0.417-0.264-0.903-0.264-1.457c0-0.465,0.122-0.925,0.366-1.378s0.65-0.863,1.218-1.228
			c0.568-0.365,1.324-0.668,2.268-0.909c0.944-0.241,2.116-0.361,3.516-0.361v-0.725c0-0.831-0.174-1.445-0.522-1.844
			c-0.348-0.399-0.854-0.599-1.518-0.599c-0.48,0-0.88,0.056-1.2,0.168c-0.32,0.112-0.598,0.238-0.834,0.378
			c-0.236,0.14-0.454,0.266-0.654,0.378c-0.2,0.112-0.42,0.168-0.66,0.168c-0.2,0-0.372-0.052-0.516-0.156
			c-0.144-0.104-0.26-0.232-0.348-0.384l-0.54-0.948c1.416-1.296,3.124-1.944,5.124-1.944c0.72,0,1.362,0.118,1.926,0.354
			c0.564,0.236,1.042,0.564,1.434,0.984c0.392,0.42,0.69,0.922,0.894,1.506c0.204,0.584,0.306,1.224,0.306,1.92V293z
			 M199.775,291.152c0.304,0,0.583-0.027,0.84-0.083c0.256-0.055,0.498-0.138,0.726-0.248s0.448-0.246,0.66-0.408
			c0.211-0.161,0.426-0.352,0.642-0.573v-2.061c-0.864,0-1.586,0.055-2.166,0.164c-0.58,0.108-1.046,0.248-1.398,0.417
			c-0.352,0.169-0.602,0.367-0.75,0.592s-0.222,0.471-0.222,0.737c0,0.524,0.154,0.898,0.462,1.124
			C198.876,291.04,199.279,291.152,199.775,291.152z"/>
		<path fill="#FF6384" d="M212.494,293.192c-1.064,0-1.884-0.302-2.46-0.906s-0.864-1.438-0.864-2.502v-6.876h-1.248
			c-0.16,0-0.298-0.052-0.414-0.156c-0.116-0.104-0.174-0.26-0.174-0.468v-1.176l1.98-0.324l0.624-3.36
			c0.032-0.16,0.106-0.284,0.222-0.372c0.116-0.088,0.262-0.132,0.438-0.132h1.536v3.876h3.24v2.112h-3.24v6.672
			c0,0.384,0.096,0.684,0.288,0.9c0.192,0.216,0.448,0.324,0.768,0.324c0.184,0,0.338-0.022,0.462-0.066
			c0.124-0.043,0.232-0.09,0.324-0.138c0.092-0.048,0.174-0.094,0.246-0.138c0.072-0.044,0.144-0.066,0.216-0.066
			c0.088,0,0.16,0.022,0.216,0.066c0.056,0.044,0.116,0.11,0.18,0.198l0.888,1.44c-0.432,0.36-0.928,0.632-1.488,0.816
			C213.674,293.1,213.094,293.192,212.494,293.192z"/>
		<path fill="#FF6384" d="M227.386,293h-1.332c-0.28,0-0.5-0.042-0.66-0.126c-0.16-0.084-0.28-0.254-0.36-0.51l-0.264-0.876
			c-0.312,0.28-0.618,0.526-0.918,0.738c-0.3,0.212-0.61,0.39-0.93,0.534c-0.32,0.144-0.66,0.252-1.02,0.324s-0.76,0.108-1.2,0.108
			c-0.52,0-1-0.07-1.44-0.21c-0.44-0.141-0.818-0.351-1.134-0.632c-0.316-0.281-0.562-0.63-0.738-1.048
			c-0.176-0.417-0.264-0.903-0.264-1.457c0-0.465,0.122-0.925,0.366-1.378s0.65-0.863,1.218-1.228
			c0.568-0.365,1.324-0.668,2.268-0.909c0.944-0.241,2.116-0.361,3.516-0.361v-0.725c0-0.831-0.174-1.445-0.522-1.844
			c-0.348-0.399-0.854-0.599-1.518-0.599c-0.48,0-0.88,0.056-1.2,0.168c-0.32,0.112-0.598,0.238-0.834,0.378
			c-0.236,0.14-0.454,0.266-0.654,0.378c-0.2,0.112-0.42,0.168-0.66,0.168c-0.2,0-0.372-0.052-0.516-0.156
			c-0.144-0.104-0.26-0.232-0.348-0.384l-0.54-0.948c1.416-1.296,3.124-1.944,5.124-1.944c0.72,0,1.362,0.118,1.926,0.354
			c0.564,0.236,1.042,0.564,1.434,0.984c0.392,0.42,0.69,0.922,0.894,1.506c0.204,0.584,0.306,1.224,0.306,1.92V293z
			 M221.626,291.152c0.304,0,0.583-0.027,0.84-0.083c0.256-0.055,0.498-0.138,0.726-0.248s0.448-0.246,0.66-0.408
			c0.211-0.161,0.426-0.352,0.642-0.573v-2.061c-0.864,0-1.586,0.055-2.166,0.164c-0.58,0.108-1.046,0.248-1.398,0.417
			c-0.352,0.169-0.602,0.367-0.75,0.592s-0.222,0.471-0.222,0.737c0,0.524,0.154,0.898,0.462,1.124
			C220.728,291.04,221.13,291.152,221.626,291.152z"/>
		<path fill="#FF6384" d="M233.458,275.168V293h-2.964v-17.832H233.458z"/>
		<path fill="#FF6384" d="M246.454,293h-1.332c-0.28,0-0.5-0.042-0.66-0.126c-0.16-0.084-0.28-0.254-0.36-0.51l-0.264-0.876
			c-0.312,0.28-0.618,0.526-0.918,0.738c-0.3,0.212-0.61,0.39-0.93,0.534c-0.32,0.144-0.66,0.252-1.02,0.324s-0.76,0.108-1.2,0.108
			c-0.52,0-1-0.07-1.44-0.21c-0.44-0.141-0.818-0.351-1.134-0.632c-0.316-0.281-0.562-0.63-0.738-1.048
			c-0.176-0.417-0.264-0.903-0.264-1.457c0-0.465,0.122-0.925,0.366-1.378s0.65-0.863,1.218-1.228
			c0.568-0.365,1.324-0.668,2.268-0.909c0.944-0.241,2.116-0.361,3.516-0.361v-0.725c0-0.831-0.174-1.445-0.522-1.844
			c-0.348-0.399-0.854-0.599-1.518-0.599c-0.48,0-0.88,0.056-1.2,0.168c-0.32,0.112-0.598,0.238-0.834,0.378
			c-0.236,0.14-0.454,0.266-0.654,0.378c-0.2,0.112-0.42,0.168-0.66,0.168c-0.2,0-0.372-0.052-0.516-0.156
			c-0.144-0.104-0.26-0.232-0.348-0.384l-0.54-0.948c1.416-1.296,3.124-1.944,5.124-1.944c0.72,0,1.362,0.118,1.926,0.354
			c0.564,0.236,1.042,0.564,1.434,0.984c0.392,0.42,0.69,0.922,0.894,1.506c0.204,0.584,0.306,1.224,0.306,1.92V293z
			 M240.694,291.152c0.304,0,0.583-0.027,0.84-0.083c0.256-0.055,0.498-0.138,0.726-0.248s0.448-0.246,0.66-0.408
			c0.211-0.161,0.426-0.352,0.642-0.573v-2.061c-0.864,0-1.586,0.055-2.166,0.164c-0.58,0.108-1.046,0.248-1.398,0.417
			c-0.352,0.169-0.602,0.367-0.75,0.592s-0.222,0.471-0.222,0.737c0,0.524,0.154,0.898,0.462,1.124
			C239.796,291.04,240.198,291.152,240.694,291.152z"/>
		<path fill="#FF6384" d="M249.406,293v-17.832h2.964v7.032c0.488-0.52,1.04-0.934,1.656-1.242c0.616-0.308,1.336-0.462,2.16-0.462
			c0.672,0,1.286,0.138,1.842,0.414c0.556,0.276,1.036,0.678,1.44,1.206c0.404,0.528,0.716,1.18,0.936,1.956
			c0.22,0.776,0.33,1.668,0.33,2.676c0,0.92-0.125,1.772-0.372,2.556c-0.248,0.784-0.602,1.464-1.062,2.04
			c-0.46,0.576-1.016,1.026-1.668,1.35c-0.652,0.324-1.382,0.486-2.19,0.486c-0.376,0-0.72-0.038-1.032-0.114
			c-0.312-0.076-0.596-0.182-0.852-0.318c-0.256-0.136-0.494-0.302-0.714-0.498c-0.22-0.196-0.43-0.414-0.63-0.654l-0.132,0.828
			c-0.048,0.208-0.13,0.356-0.246,0.444c-0.116,0.088-0.274,0.132-0.474,0.132H249.406z M255.166,282.8
			c-0.616,0-1.142,0.13-1.578,0.39c-0.436,0.26-0.842,0.626-1.218,1.098v5.52c0.336,0.416,0.702,0.706,1.098,0.87
			s0.826,0.246,1.29,0.246c0.448,0,0.852-0.084,1.212-0.252s0.666-0.424,0.918-0.768c0.252-0.344,0.446-0.778,0.582-1.302
			c0.136-0.524,0.204-1.142,0.204-1.854c0-0.72-0.058-1.33-0.174-1.83c-0.116-0.5-0.282-0.906-0.498-1.218
			c-0.216-0.312-0.478-0.54-0.786-0.684C255.908,282.872,255.558,282.8,255.166,282.8z"/>
		<path fill="#FF6384" d="M268.138,280.496c0.776,0,1.49,0.124,2.142,0.372s1.214,0.61,1.686,1.086s0.84,1.06,1.104,1.752
			s0.396,1.482,0.396,2.37c0,0.224-0.01,0.41-0.03,0.558c-0.021,0.148-0.056,0.264-0.108,0.348c-0.052,0.084-0.122,0.144-0.21,0.18
			s-0.2,0.054-0.336,0.054h-7.608c0.088,1.264,0.428,2.192,1.02,2.784c0.592,0.592,1.376,0.888,2.352,0.888
			c0.48,0,0.894-0.056,1.242-0.168c0.348-0.112,0.652-0.236,0.912-0.372c0.26-0.136,0.488-0.26,0.684-0.372
			c0.196-0.112,0.386-0.168,0.57-0.168c0.12,0,0.224,0.024,0.312,0.072c0.088,0.048,0.164,0.116,0.228,0.204l0.864,1.08
			c-0.328,0.384-0.696,0.706-1.104,0.966c-0.408,0.26-0.834,0.468-1.278,0.624c-0.444,0.156-0.896,0.266-1.356,0.33
			s-0.906,0.096-1.338,0.096c-0.856,0-1.652-0.142-2.388-0.426c-0.736-0.284-1.376-0.704-1.92-1.26s-0.972-1.244-1.284-2.064
			c-0.312-0.82-0.468-1.77-0.468-2.85c0-0.84,0.136-1.63,0.408-2.37c0.272-0.74,0.662-1.384,1.17-1.932
			c0.508-0.548,1.128-0.982,1.86-1.302S267.218,280.496,268.138,280.496z M268.198,282.62c-0.864,0-1.54,0.244-2.028,0.732
			c-0.488,0.488-0.8,1.18-0.936,2.076h5.568c0-0.384-0.052-0.746-0.156-1.086c-0.104-0.34-0.264-0.638-0.48-0.894
			c-0.216-0.256-0.488-0.458-0.816-0.606C269.021,282.694,268.638,282.62,268.198,282.62z"/>
		<path fill="#FF6384" d="M279.034,275.168V293h-2.964v-17.832H279.034z"/>
		<path fill="#FF6384" d="M289.689,283.088c-0.08,0.128-0.164,0.218-0.252,0.27c-0.088,0.052-0.2,0.078-0.336,0.078
			c-0.144,0-0.298-0.04-0.462-0.12c-0.164-0.08-0.354-0.17-0.57-0.27c-0.216-0.1-0.462-0.19-0.738-0.27
			c-0.276-0.08-0.602-0.12-0.978-0.12c-0.584,0-1.044,0.125-1.38,0.372c-0.336,0.248-0.504,0.572-0.504,0.972
			c0,0.264,0.086,0.486,0.258,0.666c0.172,0.18,0.4,0.338,0.684,0.474c0.284,0.136,0.606,0.258,0.966,0.366s0.728,0.226,1.104,0.354
			c0.376,0.128,0.744,0.274,1.104,0.438c0.36,0.164,0.682,0.372,0.966,0.624s0.512,0.554,0.684,0.906s0.258,0.776,0.258,1.272
			c0,0.592-0.108,1.138-0.324,1.638c-0.216,0.5-0.532,0.932-0.948,1.296c-0.416,0.364-0.93,0.648-1.542,0.852
			c-0.612,0.204-1.314,0.306-2.106,0.306c-0.424,0-0.838-0.038-1.242-0.114c-0.404-0.076-0.792-0.182-1.164-0.318
			c-0.372-0.136-0.716-0.295-1.032-0.48c-0.316-0.184-0.594-0.384-0.834-0.6l0.684-1.128c0.088-0.136,0.192-0.24,0.312-0.312
			c0.12-0.072,0.272-0.108,0.456-0.108s0.358,0.052,0.522,0.156s0.354,0.216,0.57,0.336c0.216,0.12,0.47,0.232,0.762,0.336
			s0.662,0.156,1.11,0.156c0.352,0,0.654-0.042,0.906-0.126c0.252-0.084,0.46-0.194,0.624-0.33c0.164-0.136,0.284-0.294,0.36-0.474
			c0.076-0.18,0.114-0.366,0.114-0.558c0-0.288-0.086-0.524-0.258-0.708c-0.172-0.184-0.4-0.344-0.684-0.48
			c-0.284-0.136-0.608-0.258-0.972-0.366c-0.364-0.108-0.736-0.226-1.116-0.354s-0.752-0.278-1.116-0.45
			c-0.364-0.172-0.688-0.39-0.972-0.654c-0.284-0.264-0.512-0.588-0.684-0.972c-0.172-0.384-0.258-0.848-0.258-1.392
			c0-0.504,0.1-0.984,0.3-1.44c0.2-0.456,0.494-0.854,0.882-1.194c0.388-0.34,0.872-0.612,1.452-0.816
			c0.58-0.204,1.25-0.306,2.01-0.306c0.848,0,1.62,0.14,2.316,0.42c0.696,0.28,1.276,0.648,1.74,1.104L289.689,283.088z"/>
	</g>
</g>
<g id="New_Symbol_5">
	<path fill="#36A2EB" d="M255.138,137.628c-32.211,0.63-25.503,21.022-48.203,26.179c-23.062,5.24-26.704-56.319-49.759-56.319
		c-23.058,0-28.163,59.796-57.037,100.849l-0.821,1.165l61.897,35.73l93.921-54.219V137.628z"/>
	<path fill="#FFCE56" d="M255.138,135.77c-10.785-13.839-18.099-29.746-33.833-29.746c-27.846,0-20.518,45.426-51.294,45.426
		s-34.012-48.863-68.881-2.931c-11.109,14.636-20.051,30.954-27.076,46.396l87.164,50.318l93.921-54.219V135.77z"/>
	<path fill="#FE6184" fill-opacity="0.8" d="M67.295,154.589c10.566-29.263,15.128-52.962,35.299-52.962
		c30.776,0,38.104,86.456,64.484,77.663c26.38-8.792,23.449-55.683,64.485-55.683c7.812,0,15.786,4.783,23.575,12.523v54.884
		l-93.921,54.219l-93.921-54.219V154.589z"/>
	<path fill="#E7E9ED" d="M161.144,252.032L61.36,194.43V79.226l99.784-57.603l99.784,57.603V194.43L161.144,252.032z
		 M73.085,187.662l88.059,50.834l88.06-50.834V85.993l-88.06-50.833L73.085,85.993V187.662z"/>
</g>
<g>
	<g>
		<rect x="144" y="75" fill="#36A2EB" width="26" height="26"/>
	</g>
	<g>
		<path fill="#FFFFFF" d="M157.139,83.789c0.42,0,0.804,0.062,1.153,0.186c0.349,0.124,0.647,0.299,0.895,0.526
			c0.248,0.227,0.441,0.5,0.58,0.819c0.138,0.319,0.208,0.674,0.208,1.064c0,0.336-0.049,0.647-0.148,0.933
			s-0.231,0.559-0.397,0.819c-0.166,0.261-0.36,0.513-0.583,0.756s-0.456,0.491-0.699,0.743l-2.054,2.098
			c0.202-0.059,0.399-0.104,0.592-0.136c0.193-0.031,0.378-0.047,0.555-0.047h2.337c0.168,0,0.302,0.047,0.4,0.142
			c0.099,0.094,0.148,0.219,0.148,0.375V93h-6.25v-0.517c0-0.105,0.022-0.214,0.066-0.328c0.044-0.113,0.115-0.218,0.211-0.315
			l2.766-2.772c0.231-0.235,0.438-0.46,0.621-0.674c0.183-0.214,0.336-0.426,0.459-0.636c0.124-0.21,0.219-0.423,0.284-0.639
			s0.098-0.444,0.098-0.684c0-0.218-0.031-0.411-0.095-0.577c-0.063-0.166-0.153-0.306-0.271-0.419
			c-0.118-0.113-0.257-0.198-0.419-0.255c-0.162-0.057-0.344-0.085-0.545-0.085c-0.374,0-0.682,0.095-0.923,0.284
			c-0.241,0.189-0.41,0.443-0.507,0.762c-0.046,0.16-0.116,0.274-0.208,0.343s-0.21,0.104-0.353,0.104
			c-0.063,0-0.132-0.006-0.208-0.019l-0.819-0.145c0.063-0.437,0.185-0.82,0.366-1.15c0.18-0.33,0.406-0.605,0.677-0.825
			c0.271-0.221,0.582-0.386,0.932-0.498S156.736,83.789,157.139,83.789z"/>
	</g>
	<circle fill="#36A2EB" stroke="#FFFFFF" stroke-miterlimit="10" cx="156.696" cy="107.3" r="2.7"/>
</g>
<g>
	<g>
		<g>
			<path fill="#FFFFFF" d="M172,189c3.86,0,7,3.14,7,7v8c0,3.86-3.14,7-7,7h-16c-3.86,0-7-3.14-7-7v-8c0-3.86,3.14-7,7-7H172
				 M172,188h-16c-4.4,0-8,3.6-8,8v8c0,4.4,3.6,8,8,8h16c4.4,0,8-3.6,8-8v-8C180,191.6,176.4,188,172,188L172,188z"/>
		</g>
	</g>
	<g>
		<path fill="#FFFFFF" d="M158.715,200.546h3.264v1.298h-3.264V200.546z"/>
		<path fill="#FFFFFF" d="M168.543,201.566h1.146v0.901c0,0.084-0.027,0.157-0.082,0.217c-0.055,0.061-0.135,0.091-0.24,0.091
			h-0.825V205h-1.361v-2.224h-3.843c-0.105,0-0.198-0.032-0.277-0.098c-0.08-0.065-0.13-0.146-0.151-0.242l-0.157-0.788l4.315-5.765
			h1.474V201.566z M167.182,198.586c0-0.134,0.004-0.279,0.013-0.435s0.023-0.317,0.044-0.485l-2.829,3.899h2.772V198.586z"/>
	</g>
	<circle fill="#FF6384" stroke="#FFFFFF" stroke-miterlimit="10" cx="163.695" cy="180.3" r="2.7"/>
</g>
<g>
	<g>
		<g>
			<path fill="#7A62AB" d="M237,77v24h-34V77H237 M238,76h-36v26h36V76L238,76z"/>
		</g>
	</g>
	<g>
		<path fill="#7A62AB" d="M211.905,86.494v2.624h2.451v1.171h-2.451v2.636h-1.26v-2.636h-2.438v-1.171h2.438v-2.624H211.905z"/>
		<path fill="#7A62AB" d="M218.734,84.645c0.42,0,0.804,0.063,1.153,0.189c0.349,0.125,0.647,0.304,0.895,0.534
			c0.248,0.23,0.441,0.507,0.58,0.832c0.138,0.324,0.208,0.685,0.208,1.082c0,0.341-0.049,0.657-0.148,0.947
			s-0.231,0.567-0.397,0.832s-0.36,0.521-0.583,0.768c-0.223,0.248-0.456,0.499-0.699,0.755l-2.054,2.131
			c0.202-0.06,0.399-0.105,0.592-0.138c0.193-0.032,0.378-0.048,0.555-0.048h2.337c0.168,0,0.302,0.048,0.4,0.144
			c0.099,0.096,0.148,0.223,0.148,0.381V94h-6.25v-0.525c0-0.106,0.022-0.217,0.066-0.333c0.044-0.115,0.115-0.222,0.211-0.32
			l2.766-2.815c0.231-0.239,0.438-0.467,0.621-0.685c0.183-0.218,0.336-0.433,0.459-0.646c0.124-0.213,0.219-0.43,0.284-0.65
			c0.065-0.219,0.098-0.451,0.098-0.694c0-0.222-0.031-0.417-0.095-0.585c-0.063-0.168-0.153-0.311-0.271-0.426
			c-0.118-0.115-0.257-0.202-0.419-0.259c-0.162-0.058-0.344-0.086-0.545-0.086c-0.374,0-0.682,0.096-0.923,0.288
			c-0.241,0.192-0.41,0.45-0.507,0.774c-0.046,0.162-0.116,0.278-0.208,0.349s-0.21,0.105-0.353,0.105
			c-0.063,0-0.132-0.006-0.208-0.019l-0.819-0.147c0.063-0.444,0.185-0.833,0.366-1.168c0.18-0.335,0.406-0.614,0.677-0.838
			c0.271-0.224,0.582-0.392,0.932-0.505C217.954,84.702,218.331,84.645,218.734,84.645z"/>
		<path fill="#7A62AB" d="M226.842,86.987c0,0.35-0.058,0.666-0.173,0.947c-0.116,0.282-0.27,0.521-0.463,0.72
			c-0.193,0.198-0.418,0.351-0.674,0.458c-0.256,0.106-0.523,0.16-0.8,0.16c-0.303,0-0.582-0.053-0.838-0.16
			c-0.256-0.107-0.478-0.259-0.665-0.458c-0.187-0.199-0.333-0.438-0.438-0.72c-0.105-0.281-0.158-0.597-0.158-0.947
			c0-0.358,0.053-0.683,0.158-0.973s0.25-0.535,0.438-0.736c0.187-0.2,0.409-0.355,0.665-0.464c0.256-0.108,0.535-0.163,0.838-0.163
			c0.302,0,0.583,0.055,0.841,0.163c0.258,0.109,0.482,0.264,0.671,0.464c0.189,0.201,0.336,0.446,0.441,0.736
			S226.842,86.628,226.842,86.987z M229.873,84.997c0.05-0.064,0.113-0.122,0.189-0.173s0.181-0.077,0.315-0.077h1.128l-6.767,9.015
			c-0.05,0.068-0.114,0.125-0.192,0.169c-0.078,0.045-0.171,0.067-0.28,0.067h-1.159L229.873,84.997z M225.639,86.987
			c0-0.247-0.023-0.454-0.069-0.621c-0.046-0.167-0.11-0.301-0.192-0.403c-0.082-0.102-0.179-0.176-0.29-0.221
			c-0.111-0.044-0.23-0.067-0.356-0.067s-0.244,0.022-0.353,0.067c-0.109,0.045-0.204,0.119-0.284,0.221
			c-0.08,0.103-0.142,0.237-0.186,0.403c-0.044,0.167-0.066,0.374-0.066,0.621c0,0.239,0.022,0.438,0.066,0.598
			c0.044,0.16,0.106,0.289,0.186,0.387c0.08,0.098,0.174,0.168,0.284,0.211c0.109,0.042,0.227,0.064,0.353,0.064
			s0.245-0.021,0.356-0.064c0.111-0.043,0.208-0.113,0.29-0.211s0.146-0.227,0.192-0.387
			C225.616,87.425,225.639,87.226,225.639,86.987z M231.983,91.824c0,0.35-0.058,0.665-0.173,0.947
			c-0.115,0.282-0.27,0.521-0.463,0.72s-0.418,0.352-0.674,0.461c-0.256,0.108-0.523,0.163-0.8,0.163
			c-0.302,0-0.582-0.055-0.838-0.163c-0.256-0.109-0.478-0.263-0.665-0.461c-0.187-0.198-0.333-0.438-0.438-0.72
			s-0.158-0.597-0.158-0.947c0-0.358,0.053-0.683,0.158-0.973s0.251-0.535,0.438-0.736c0.187-0.201,0.408-0.355,0.665-0.464
			c0.256-0.109,0.536-0.163,0.838-0.163s0.583,0.054,0.841,0.163s0.482,0.263,0.671,0.464c0.189,0.201,0.336,0.446,0.441,0.736
			S231.983,91.466,231.983,91.824z M230.786,91.824c0-0.248-0.024-0.455-0.073-0.621c-0.048-0.167-0.113-0.301-0.195-0.403
			c-0.082-0.103-0.178-0.176-0.29-0.221s-0.23-0.067-0.356-0.067s-0.244,0.022-0.353,0.067c-0.109,0.045-0.203,0.118-0.28,0.221
			s-0.14,0.237-0.186,0.403c-0.046,0.166-0.069,0.373-0.069,0.621c0,0.239,0.023,0.439,0.069,0.601
			c0.046,0.163,0.108,0.292,0.186,0.391s0.171,0.168,0.28,0.211c0.109,0.043,0.227,0.064,0.353,0.064s0.245-0.021,0.356-0.064
			c0.111-0.042,0.208-0.113,0.29-0.211c0.082-0.098,0.147-0.228,0.195-0.391C230.762,92.264,230.786,92.063,230.786,91.824z"/>
	</g>
	<circle fill="#FFCE56" stroke="#FFFFFF" stroke-miterlimit="10" cx="220.185" cy="106.701" r="2.7"/>
</g>
<g>
	<circle fill="#FF6384" stroke="#FFFFFF" stroke-miterlimit="10" cx="100.221" cy="103.037" r="2.7"/>
	<g>
		<path fill="#FF6384" d="M95.175,83.789c0.42,0,0.804,0.062,1.153,0.186c0.349,0.124,0.647,0.299,0.895,0.526
			c0.248,0.227,0.441,0.5,0.58,0.819c0.138,0.319,0.208,0.674,0.208,1.064c0,0.336-0.049,0.647-0.148,0.933
			s-0.231,0.559-0.397,0.819c-0.166,0.261-0.36,0.513-0.583,0.756s-0.456,0.491-0.699,0.743l-2.054,2.098
			c0.202-0.059,0.399-0.104,0.592-0.136c0.193-0.031,0.378-0.047,0.555-0.047h2.337c0.168,0,0.302,0.047,0.4,0.142
			c0.099,0.094,0.148,0.219,0.148,0.375V93h-6.25v-0.517c0-0.105,0.022-0.214,0.066-0.328c0.044-0.113,0.115-0.218,0.211-0.315
			l2.766-2.772c0.231-0.235,0.438-0.46,0.621-0.674c0.183-0.214,0.336-0.426,0.459-0.636c0.124-0.21,0.219-0.423,0.284-0.639
			s0.098-0.444,0.098-0.684c0-0.218-0.031-0.411-0.095-0.577c-0.063-0.166-0.153-0.306-0.271-0.419
			c-0.118-0.113-0.257-0.198-0.419-0.255c-0.162-0.057-0.344-0.085-0.545-0.085c-0.374,0-0.682,0.095-0.923,0.284
			c-0.241,0.189-0.41,0.443-0.507,0.762c-0.046,0.16-0.116,0.274-0.208,0.343s-0.21,0.104-0.353,0.104
			c-0.063,0-0.132-0.006-0.208-0.019l-0.819-0.145c0.063-0.437,0.185-0.82,0.366-1.15c0.18-0.33,0.406-0.605,0.677-0.825
			c0.271-0.221,0.582-0.386,0.932-0.498S94.772,83.789,95.175,83.789z"/>
		<path fill="#FF6384" d="M99.15,92.143c0-0.13,0.024-0.254,0.072-0.372s0.116-0.218,0.202-0.302s0.188-0.151,0.306-0.202
			s0.244-0.076,0.378-0.076c0.13,0,0.254,0.025,0.372,0.076s0.218,0.118,0.303,0.202c0.084,0.084,0.151,0.185,0.201,0.302
			c0.051,0.118,0.076,0.242,0.076,0.372c0,0.135-0.025,0.259-0.076,0.375c-0.05,0.116-0.117,0.215-0.201,0.299
			c-0.084,0.084-0.185,0.15-0.303,0.198s-0.241,0.073-0.372,0.073c-0.134,0-0.26-0.024-0.378-0.073s-0.22-0.114-0.306-0.198
			s-0.153-0.184-0.202-0.299S99.15,92.277,99.15,92.143z"/>
		<path fill="#FF6384" d="M103.22,91.834h1.846v-5.311c0-0.206,0.006-0.422,0.019-0.649l-1.311,1.096
			c-0.055,0.046-0.11,0.078-0.167,0.095s-0.112,0.025-0.167,0.025c-0.084,0-0.161-0.018-0.23-0.054s-0.121-0.077-0.154-0.123
			l-0.491-0.674l2.778-2.363h1.279v7.957h1.638V93h-5.04V91.834z"/>
	</g>
</g>
</svg>
